<?xml version="1.0" encoding="utf-8"?>
<!-- Generator: Adobe Illustrator 22.1.0, SVG Export Plug-In . SVG Version: 6.00 Build 0)  -->
<svg version="1.1" xmlns="http://www.w3.org/2000/svg" xmlns:xlink="http://www.w3.org/1999/xlink" x="0px" y="0px"
	 viewBox="0 0 430 443.3" style="enable-background:new 0 0 430 443.3;" xml:space="preserve">
<style type="text/css">
	.st0{fill:#FFFFFF;}
	.st1{fill:#F36E21;}
	.st2{fill:#1E1E1E;}
</style>
<g id="Calque_4">
</g>
<g id="Calque_1">
	<g>
		<g>
			<path class="st0" d="M107.7-17.2c114.9,0,229.7,0,344.6,0c0,153.3,0,306.7,0,460.1c-114.8,0-229.7,0-344.6,0
				C107.7,289.5,107.7,136.1,107.7-17.2z M335.1,32C335.1,32,335.1,32,335.1,32c-8.6,0.1-17.2-0.1-25.8,0.1
				c-9.4,0.2-14.8,5.8-14.8,15.2c0,4.5,0,9,0,13.4c0.1,7.6,7.1,14.5,14.7,14.5c9.9,0,19.8,0,29.7,0c0.9,0,1.9,0,2.8,0.3
				c0.5,0.2,1.2,0.9,1.2,1.4c0,0.5-0.7,1.1-1.3,1.4c-0.6,0.2-1.3,0.1-2,0.1c-10.1,0-20.2,0-30.3,0c-6.8,0-13.8,5-14.6,11.8
				c-0.7,6.1-0.1,12.4-0.1,18.6c0,0.3,0.2,0.6,0.3,1c2.7,7.6,8,11.3,16.5,11.3c15.4,0,30.8,0,46.2,0c2.4,0,3.6-1.2,3.6-3.6
				c0-2.3,0-4.6,0-6.9c0-2.9-1.1-4-4-4c-15.3,0-30.7,0-46,0c-2.4,0-2.6-0.2-2.7-2.7c0-2.8,0-5.6,0-8.3c0-2.8,0.1-2.9,3-2.9
				c10,0,19.9-0.1,29.9,0.1c4.9,0.1,8.8-1.9,12.1-5.2c6.9-6.9,4.9-19.1-3.8-23.6c-3.4-1.7-7.1-2.7-10.9-2.7c-8.5,0-17.1,0-25.6,0
				c-0.7,0-1.5,0-2.2-0.1c-1.7-0.1-2.5-0.9-2.5-2.7c0.1-2.4,0-4.9,0-7.3c0-4.3,0.7-4.9,5-4.9c15.7,0,31.3,0,47,0
				c2.9,0,4.3-1.4,4.3-4.3c0-1.9,0-3.8,0-5.7c0-2.7-1.3-4.1-4-4.1C352.2,32,343.7,32,335.1,32z M151.3,266
				C151.3,266,151.3,266,151.3,266c-8.7,0.1-17.4-0.1-26,0.1c-8.3,0.2-13.8,4.9-14.5,13c-0.5,5.4-0.5,10.9-0.1,16.3
				c0.6,8.1,7.4,13.9,15.5,13.9c10,0,19.9,0,29.9,0c1.2,0,3.2-0.3,3.1,1.6c0,2-2,1.5-3.2,1.5c-10.2,0-20.5,0-30.7,0
				c-7.2,0-14,5.7-14.7,12.9c-0.5,4.8-0.2,9.7-0.2,14.6c0,1.3,0.2,2.6,0.6,3.8c2.6,7.6,8.1,11.4,16.6,11.4c15.3,0,30.6,0,46,0
				c2.5,0,3.7-1.2,3.7-3.7c0-2.3,0-4.6,0-6.9c0-2.9-1-3.9-3.9-3.9c-15.3,0-30.6,0-46,0c-2.5,0-2.8-0.3-2.8-2.8c0-2.6,0-5.2,0-7.7
				c0-3.4,0-3.4,3.4-3.4c9.9,0,19.8-0.1,29.7,0.1c4.5,0.1,8-1.7,11.2-4.4c6.3-5.1,6.5-17.8-0.3-22.7c-3.9-2.8-8.2-4.3-12.9-4.3
				c-8.8-0.1-17.6,0-26.4,0c-0.8,0-1.6-0.1-2.4-0.1c-1.6-0.1-2.3-1-2.2-2.5c0-2.5,0-5,0-7.5c0-4.1,0.8-4.9,4.9-4.9
				c15.7,0,31.5,0,47.2,0c2.8,0,4.2-1.4,4.2-4.1c0-2,0-3.9,0-5.9c0-2.6-1.5-4.1-4.1-4.1C168.4,266,159.8,266,151.3,266z
				 M211.3,120.5c0-0.5,0.1-0.9,0.1-1.3c0-27.9,0-55.9,0.1-83.8c0-1.9-1.6-3.5-3.5-3.5c-18,0-35.9,0-53.9,0.2
				c-6.7,0.1-11.7,4.5-13.1,10.9c-0.3,1.6-0.5,3.2-0.5,4.8c0,18.8-0.1,37.6,0,56.3c0,7.9,5.2,14.3,12.9,16.2c0.5,0.1,1,0.1,1.7,0.1
				c0-12.2,0-24.1,0-36c14,0,27.7,0,41.6,0c0,12.1,0,24,0,36C201.5,120.5,206.3,120.5,211.3,120.5z M218.4,43.6
				C218.4,43.6,218.4,43.6,218.4,43.6c0.1,10,0,19.9,0.1,29.9c0.1,4.5,1.6,8.6,5.5,11.3c10.7,7.7,24,0.3,25.7-8.8
				c1.1-6.2,2.2-12.4,3.3-18.6c0.5-2.9,1-5.9,1.7-8.7c0.4-1.5,1.4-2.3,3.2-2.2c1.9,0.2,3.8,0,5.7,0c2.2,0.1,4.3,0.2,6.5,0.4
				c0.5,0.1,0.9,0.8,1.4,1.2c-0.5,0.4-0.9,1-1.4,1.2c-0.7,0.2-1.5,0.1-2.2,0.2c-2,0.4-4.2,0.6-6.1,1.4c-6.1,2.6-9.6,10-8.5,17.3
				c1.1,7.1,4.5,11.1,10.7,12.5c1.5,0.3,3.1,0.4,4.6,0.6c2.6,0.3,2.9,0.7,2.9,3.4c0,10.8,0,21.7,0,32.5c0,2.2,1.4,3.6,3.6,3.6
				c2.7,0,5.4,0,8.1,0c1.6,0,3.1-1.5,3.1-3c0-11.9,0.2-23.9-0.1-35.8c-0.2-7.8-6.4-13.9-14.1-14.8c-0.9-0.1-1.9-0.1-2.6-0.5
				c-0.7-0.5-1.3-1.5-1.4-2.3c-0.1-0.5,0.8-1.6,1.4-1.7c1.6-0.4,3.2-0.4,4.8-0.5c5.3-0.1,9.8-3.5,11.3-8.6
				c1.5-5.4,0.5-10.3-2.6-14.9c-2.6-3.9-6.2-6.6-11-6.8c-6.1-0.3-12.2-0.2-18.3,0c-6,0.2-10.9,3.7-12.5,9.6
				c-1.7,6.6-2.8,13.4-4.1,20.1c-0.6,3.2-1,6.5-1.6,9.8c-0.1,0.5-0.9,0.9-1.4,1.4c-0.3-0.6-0.6-1.1-0.8-1.7c-0.1-0.5,0-1.1,0-1.6
				c0-18.4,0-36.9,0-55.3c0-2.5-1.2-3.7-3.7-3.7c-2.6,0-5.2,0-7.7,0c-2.4,0-3.5,1.1-3.5,3.6C218.4,23.9,218.4,33.7,218.4,43.6z
				 M196.3,190.7c0,9.4,0,18.7,0,28.1c0,0.1,0,0.1,0,0.2c0.1,9.2,6.4,16.4,15.2,16.7c9.8,0.3,19.5,0.2,29.3,0
				c7.1-0.2,11.1-3.6,12.6-10.6c1.7-8.3,3.3-16.6,4.6-24.9c2-12,3.7-23.9,5.5-35.9c0.3-1.8,0.2-3.9-0.4-5.6
				c-2.5-7.8-8.2-11.8-16.5-11.8c-11.6,0-23.2,0-34.8,0c-0.7,0-1.4-0.1-2,0.1c-7.5,2.2-13.5,7.4-13.5,16.4
				C196.3,172.4,196.3,181.6,196.3,190.7z M389,189.8c3.3,0,6.6,0,9.8,0c6.9,0,13.6-5.1,14.7-11.9c0.7-4.5,0.5-9.2,0.5-13.8
				c-0.1-10.3-6.7-16.9-17-16.9c-15.5-0.1-31.1,0-46.6,0c-2.2,0-3.4,1.3-3.5,3.5c0,2.4,0,4.7,0,7.1c0,2.8,1.1,3.9,3.9,3.9
				c15.4,0,30.8,0,46.2,0c1.9,0,2.6,0.6,2.5,2.5c-0.1,2.9,0,5.8,0,8.7c0,2.6-0.2,2.8-2.8,2.8c-9.7,0-19.4-0.1-29.1,0
				c-3.2,0-6.6-0.1-9.6,0.9c-7.7,2.3-11.4,7.9-11.5,16.5c0,13.4,0,26.7,0,40.1c0,0.6,0.1,1.2,0.1,1.7c4.9,0,9.6,0,14.4,0
				c0-4.2,0-8.3,0-12.3c0-10,0-19.9,0-29.9c0-1-0.1-2.3,1.3-2.3c4-0.1,8.1,0,12.5,0c3.2,14.9,4.7,30.2,7.3,45.4c4.7,0,9.4,0,14.3,0
				C394,220.3,391.5,205.2,389,189.8z M235.9,265.1c-7.4,0-14.8-0.2-22.2,0.1c-3,0.1-6,0.9-8.8,2c-5.8,2.5-8.6,7.1-8.5,13.5
				c0,4.4-0.1,8.8,0,13.2c0.2,5.9,3.1,10.3,8.2,12.8c11.5,5.7,23.2,11,34.9,16.5c1.6,0.8,3.3,1.5,4.9,2.4c1.3,0.7,1.9,1.8,1.8,3.4
				c-0.1,2.4,0,4.9,0,7.3c0,3.3,0,3.3-3.2,3.3c-14.5,0-29,0-43.5,0c-2,0-3.4,1.1-3.4,2.9c-0.1,2.9-0.1,5.8,0,8.7
				c0.1,1.7,1.1,2.8,2.8,2.8c15.3,0,30.6,0.2,46-0.1c8.4-0.1,14.3-6.1,15-14.5c0.3-4.2,0.4-8.4,0.2-12.6c-0.3-6.3-2.9-11.3-9-14
				c-5.2-2.3-10.2-5-15.4-7.4c-7.4-3.5-14.9-6.9-22.3-10.3c-2.4-1.1-3.8-2.7-3.5-5.5c0.2-2.2,0-4.5,0-6.7c0-3.2,0.6-3.8,3.8-3.8
				c15.3,0,30.6,0,46,0c2.6,0,4-1.3,4-3.9c0-2.1,0-4.2,0-6.3c0-2.4-1.4-3.9-3.9-3.9C251.7,265.1,243.8,265.1,235.9,265.1z
				 M271.8,147.3c-0.1,1.7-0.2,3.2-0.2,4.6c0,20.7,0,41.5,0,62.2c0,2.5,0.2,5,0.6,7.5c1.1,7.4,7.7,13.9,14.7,14.1
				c9.7,0.2,19.4,0.2,29.1,0c5.6-0.1,11.2-3.8,12.2-10.2c1.5-8.9,3.1-17.7,4.4-26.6c2-13.9,3.8-27.8,5.6-41.7
				c0.4-3.2,0.5-6.5,0.8-9.8c-5,0-9.4,0-14,0c-0.1,0.9-0.3,1.7-0.4,2.5c-0.5,4.2-0.9,8.4-1.4,12.5c-1.8,14.5-3.7,29-5.6,43.5
				c-0.5,3.6-1,7.1-1.7,10.6c-0.2,1.3-0.8,2.4-2.7,2.4c-8.4-0.1-16.8-0.1-25.2,0c-1.5,0-2.1-0.6-2.2-2c0-0.7,0-1.4,0-2
				c0-19.6,0-39.2,0-58.8c0-3,0-5.9,0-8.9C281.1,147.3,276.6,147.3,271.8,147.3z M313.1,353.7c0-1.1,0-1.9,0-2.7
				c0-20.9,0-41.9,0-62.8c0-2.4,0.4-4.6,1.2-6.9c0.5-1.4,1.2-2,2.8-2c9.3,0.1,18.6,0,27.9,0c3,0,4.4-1.4,4.4-4.4c0-1.9,0-3.8,0-5.7
				c0-3.1-1.3-4.4-4.4-4.4c-23.5,0-47,0-70.6,0.1c-0.7,0-1.3,0-2.1,0c0,4.9,0,9.6,0,14.6c9.2,0,18.3,0,27.4,0
				c-0.7,4.5-1,72-0.3,74.3C303.9,353.7,308.4,353.7,313.1,353.7z"/>
			<path d="M335.1,32c8.5,0,17.1,0,25.6,0c2.7,0,4,1.4,4,4.1c0,1.9,0,3.8,0,5.7c0,3-1.3,4.3-4.3,4.3c-15.7,0-31.3,0-47,0
				c-4.3,0-5,0.7-5,4.9c0,2.4,0.1,4.9,0,7.3c-0.1,1.8,0.8,2.6,2.5,2.7c0.7,0,1.5,0.1,2.2,0.1c8.5,0,17.1,0,25.6,0
				c3.9,0,7.5,0.9,10.9,2.7c8.6,4.4,10.6,16.6,3.8,23.6c-3.3,3.3-7.2,5.3-12.1,5.2c-10-0.2-19.9-0.1-29.9-0.1c-2.9,0-3,0.1-3,2.9
				c0,2.8,0,5.6,0,8.3c0,2.5,0.2,2.7,2.7,2.7c15.3,0,30.7,0,46,0c2.9,0,4,1.1,4,4c0,2.3,0,4.6,0,6.9c0,2.3-1.3,3.6-3.6,3.6
				c-15.4,0-30.8,0-46.2,0c-8.5,0-13.8-3.7-16.5-11.3c-0.1-0.3-0.3-0.6-0.3-1c0-6.2-0.7-12.5,0.1-18.6c0.8-6.7,7.8-11.8,14.6-11.8
				c10.1,0,20.2,0,30.3,0c0.7,0,1.4,0.1,2-0.1c0.6-0.2,1.3-0.9,1.3-1.4c0-0.5-0.7-1.2-1.2-1.4c-0.9-0.3-1.9-0.3-2.8-0.3
				c-9.9,0-19.8,0-29.7,0c-7.5,0-14.6-6.9-14.7-14.5c-0.1-4.5,0-9,0-13.4c0-9.4,5.4-15,14.8-15.2C317.9,31.9,326.5,32,335.1,32
				C335.1,32,335.1,32,335.1,32z"/>
			<path d="M151.3,266c8.5,0,17.1,0,25.6,0c2.6,0,4.1,1.5,4.1,4.1c0,2,0,3.9,0,5.9c0,2.8-1.4,4.1-4.2,4.1c-15.7,0-31.5,0-47.2,0
				c-4.1,0-4.9,0.8-4.9,4.9c0,2.5,0,5,0,7.5c0,1.6,0.7,2.4,2.2,2.5c0.8,0.1,1.6,0.1,2.4,0.1c8.8,0,17.6-0.1,26.4,0
				c4.7,0.1,9,1.5,12.9,4.3c6.8,4.9,6.6,17.6,0.3,22.7c-3.3,2.7-6.7,4.5-11.2,4.4c-9.9-0.2-19.8-0.1-29.7-0.1c-3.3,0-3.4,0-3.4,3.4
				c0,2.6,0,5.2,0,7.7c0,2.5,0.3,2.8,2.8,2.8c15.3,0,30.6,0,46,0c2.8,0,3.8,1,3.9,3.9c0,2.3,0,4.6,0,6.9c0,2.5-1.2,3.7-3.7,3.7
				c-15.3,0-30.6,0-46,0c-8.6,0-14-3.7-16.6-11.4c-0.4-1.2-0.6-2.5-0.6-3.8c0-4.9-0.3-9.8,0.2-14.6c0.7-7.2,7.6-12.9,14.7-12.9
				c10.2,0,20.5,0,30.7,0c1.2,0,3.2,0.6,3.2-1.5c0-2-1.9-1.6-3.1-1.6c-10-0.1-19.9,0-29.9,0c-8.1,0-14.9-5.8-15.5-13.9
				c-0.4-5.4-0.4-10.9,0.1-16.3c0.7-8.1,6.1-12.8,14.5-13C133.9,265.9,142.6,266,151.3,266C151.3,266,151.3,266,151.3,266z"/>
			<path d="M211.3,120.5c-5,0-9.8,0-14.8,0c0-12,0-23.9,0-36c-13.9,0-27.6,0-41.6,0c0,11.9,0,23.8,0,36c-0.7-0.1-1.3,0-1.7-0.1
				c-7.7-1.9-12.8-8.3-12.9-16.2c-0.1-18.8,0-37.6,0-56.3c0-1.6,0.2-3.3,0.5-4.8c1.4-6.5,6.4-10.9,13.1-10.9
				c18-0.2,35.9-0.2,53.9-0.2c2,0,3.5,1.6,3.5,3.5c0,27.9,0,55.9-0.1,83.8C211.4,119.6,211.3,120,211.3,120.5z M196.6,46.7
				c-0.3,0-0.5-0.1-0.8-0.1c-12.7,0-25.5,0-38.2,0c-1.8,0-2.4,0.8-2.4,2.5c0,4.1,0,8.3,0,12.4c0,2.8,0,5.5,0,8.3
				c13.9,0,27.5,0,41.4,0C196.6,62,196.6,54.4,196.6,46.7z"/>
			<path d="M218.4,43.6c0-9.8,0-19.7,0-29.5c0-2.5,1.1-3.6,3.5-3.6c2.6,0,5.2,0,7.7,0c2.5,0,3.7,1.2,3.7,3.7c0,18.4,0,36.9,0,55.3
				c0,0.5-0.1,1.1,0,1.6c0.2,0.6,0.5,1.1,0.8,1.7c0.5-0.5,1.3-0.9,1.4-1.4c0.6-3.2,1-6.5,1.6-9.8c1.3-6.7,2.4-13.5,4.1-20.1
				c1.5-5.9,6.4-9.4,12.5-9.6c6.1-0.2,12.2-0.2,18.3,0c4.8,0.2,8.4,2.9,11,6.8c3.1,4.6,4.1,9.5,2.6,14.9c-1.5,5.1-5.9,8.5-11.3,8.6
				c-1.6,0-3.3,0.1-4.8,0.5c-0.6,0.1-1.5,1.2-1.4,1.7c0.1,0.8,0.7,1.8,1.4,2.3c0.7,0.5,1.7,0.4,2.6,0.5c7.8,0.9,14,7,14.1,14.8
				c0.3,11.9,0.1,23.9,0.1,35.8c0,1.6-1.6,3-3.1,3c-2.7,0-5.4,0-8.1,0c-2.3,0-3.6-1.4-3.6-3.6c0-10.8,0-21.7,0-32.5
				c0-2.6-0.3-3-2.9-3.4c-1.5-0.2-3.1-0.2-4.6-0.6c-6.2-1.4-9.6-5.4-10.7-12.5c-1.2-7.4,2.4-14.7,8.5-17.3c1.9-0.8,4-1,6.1-1.4
				c0.7-0.1,1.5,0,2.2-0.2c0.5-0.2,1-0.8,1.4-1.2c-0.5-0.4-0.9-1.1-1.4-1.2c-2.1-0.3-4.3-0.4-6.5-0.4c-1.9-0.1-3.8,0.1-5.7,0
				c-1.8-0.1-2.8,0.6-3.2,2.2c-0.7,2.9-1.2,5.8-1.7,8.7c-1.1,6.2-2.1,12.4-3.3,18.6c-1.7,9.1-14.9,16.5-25.7,8.8
				c-3.8-2.7-5.4-6.8-5.5-11.3C218.3,63.5,218.4,53.5,218.4,43.6C218.4,43.6,218.4,43.6,218.4,43.6z"/>
			<path d="M196.3,190.7c0-9.2,0-18.3,0-27.5c0-9,6-14.2,13.5-16.4c0.6-0.2,1.3-0.1,2-0.1c11.6,0,23.2,0,34.8,0
				c8.3,0,14,4,16.5,11.8c0.6,1.7,0.7,3.8,0.4,5.6c-1.7,12-3.5,24-5.5,35.9c-1.4,8.3-2.9,16.7-4.6,24.9c-1.4,6.9-5.5,10.4-12.6,10.6
				c-9.8,0.2-19.5,0.3-29.3,0c-8.8-0.3-15.1-7.5-15.2-16.7c0-0.1,0-0.1,0-0.2C196.3,209.4,196.3,200.1,196.3,190.7z M210.6,191.7
				c0,8.9,0,17.9,0,26.8c0,2.6,0.2,2.8,2.8,2.8c8.1,0,16.1-0.1,24.2,0.1c1.9,0,2.8-0.7,3.2-2.3c0.2-0.6,0.3-1.2,0.4-1.8
				c1.3-8.4,2.7-16.7,3.9-25.1c1.4-9.4,2.6-18.8,3.9-28.2c0.3-1.9-0.7-2.6-2.4-2.6c-11.2,0-22.4,0-33.5-0.1c-1.4,0-2.1,0.6-2.3,2
				c-0.1,0.8-0.2,1.6-0.2,2.4C210.6,174.3,210.6,183,210.6,191.7z"/>
			<path d="M389,189.8c2.5,15.4,5,30.5,7.5,45.8c-4.9,0-9.5,0-14.3,0c-2.6-15.2-4.1-30.5-7.3-45.4c-4.4,0-8.5-0.1-12.5,0
				c-1.4,0-1.3,1.3-1.3,2.3c0,10,0,19.9,0,29.9c0,4.1,0,8.1,0,12.3c-4.8,0-9.5,0-14.4,0c0-0.6-0.1-1.2-0.1-1.7c0-13.4,0-26.7,0-40.1
				c0-8.5,3.7-14.2,11.5-16.5c3-0.9,6.4-0.8,9.6-0.9c9.7-0.1,19.4,0,29.1,0c2.6,0,2.8-0.2,2.8-2.8c0-2.9,0-5.8,0-8.7
				c0-1.8-0.7-2.5-2.5-2.5c-15.4,0.1-30.8,0-46.2,0c-2.8,0-3.9-1.1-3.9-3.9c0-2.4,0-4.7,0-7.1c0-2.2,1.3-3.5,3.5-3.5
				c15.5,0,31.1-0.1,46.6,0c10.3,0.1,16.9,6.6,17,16.9c0.1,4.6,0.2,9.3-0.5,13.8c-1.1,6.8-7.8,11.9-14.7,11.9
				C395.6,189.8,392.4,189.8,389,189.8z"/>
			<path d="M235.9,265.1c7.9,0,15.9,0,23.8,0c2.4,0,3.8,1.4,3.9,3.9c0,2.1,0,4.2,0,6.3c0,2.6-1.4,3.9-4,3.9c-15.3,0-30.6,0-46,0
				c-3.2,0-3.7,0.6-3.8,3.8c0,2.2,0.1,4.5,0,6.7c-0.2,2.8,1.1,4.4,3.5,5.5c7.5,3.4,14.9,6.8,22.3,10.3c5.1,2.4,10.2,5.1,15.4,7.4
				c6.2,2.7,8.7,7.7,9,14c0.2,4.2,0.2,8.4-0.2,12.6c-0.7,8.4-6.6,14.4-15,14.5c-15.3,0.3-30.6,0.1-46,0.1c-1.7,0-2.7-1.2-2.8-2.8
				c-0.1-2.9-0.1-5.8,0-8.7c0-1.8,1.4-2.9,3.4-2.9c14.5,0,29,0,43.5,0c3.2,0,3.2,0,3.2-3.3c0-2.4-0.1-4.9,0-7.3
				c0.1-1.6-0.5-2.7-1.8-3.4c-1.6-0.9-3.3-1.6-4.9-2.4c-11.6-5.5-23.3-10.8-34.9-16.5c-5.1-2.5-8.1-6.9-8.2-12.8
				c-0.1-4.4,0-8.8,0-13.2c-0.1-6.4,2.7-11,8.5-13.5c2.7-1.2,5.8-1.9,8.8-2C221.1,265,228.5,265.1,235.9,265.1z"/>
			<path d="M271.8,147.3c4.8,0,9.2,0,14.1,0c0,3,0,5.9,0,8.9c0,19.6,0,39.2,0,58.8c0,0.7,0,1.4,0,2c0.1,1.4,0.7,2,2.2,2
				c8.4-0.1,16.8-0.1,25.2,0c1.9,0,2.4-1.1,2.7-2.4c0.7-3.5,1.2-7.1,1.7-10.6c1.9-14.5,3.7-29,5.6-43.5c0.5-4.2,0.9-8.3,1.4-12.5
				c0.1-0.8,0.2-1.6,0.4-2.5c4.5,0,8.9,0,14,0c-0.3,3.3-0.4,6.6-0.8,9.8c-1.8,13.9-3.6,27.8-5.6,41.7c-1.3,8.9-2.9,17.8-4.4,26.6
				c-1,6.3-6.7,10.1-12.2,10.2c-9.7,0.2-19.4,0.2-29.1,0c-7.1-0.2-13.6-6.6-14.7-14.1c-0.4-2.5-0.6-5-0.6-7.5c0-20.7,0-41.5,0-62.2
				C271.6,150.4,271.7,148.9,271.8,147.3z"/>
			<path d="M313.1,353.7c-4.7,0-9.3,0-13.8,0c-0.6-2.3-0.3-69.8,0.3-74.3c-9.1,0-18.2,0-27.4,0c0-5,0-9.7,0-14.6c0.8,0,1.4,0,2.1,0
				c23.5,0,47,0,70.6-0.1c3.1,0,4.3,1.3,4.4,4.4c0,1.9,0,3.8,0,5.7c0,3-1.4,4.4-4.4,4.4c-9.3,0-18.6,0.1-27.9,0
				c-1.6,0-2.3,0.6-2.8,2c-0.7,2.3-1.2,4.5-1.2,6.9c0.1,20.9,0,41.9,0,62.8C313.1,351.8,313.1,352.6,313.1,353.7z"/>
			<path class="st0" d="M196.6,46.7c0,7.8,0,15.3,0,23.1c-13.9,0-27.5,0-41.4,0c0-2.8,0-5.5,0-8.3c0-4.1,0-8.3,0-12.4
				c0-1.7,0.6-2.5,2.4-2.5c12.7,0,25.5,0,38.2,0C196.1,46.6,196.4,46.6,196.6,46.7z"/>
			<path class="st0" d="M210.6,191.7c0-8.7,0-17.3,0-26c0-0.8,0.1-1.6,0.2-2.4c0.2-1.3,0.9-2,2.3-2c11.2,0.1,22.4,0.1,33.5,0.1
				c1.7,0,2.6,0.7,2.4,2.6c-1.3,9.4-2.5,18.8-3.9,28.2c-1.2,8.4-2.6,16.7-3.9,25.1c-0.1,0.6-0.3,1.2-0.4,1.8
				c-0.4,1.6-1.3,2.4-3.2,2.3c-8.1-0.1-16.1,0-24.2-0.1c-2.6,0-2.8-0.2-2.8-2.8C210.6,209.5,210.6,200.6,210.6,191.7z"/>
		</g>
	</g>
	<g>
		<g>
			<path class="st0" d="M451.2,441.1c-114.4,0-228.9,0-343.3,0c0-152.8,0-305.6,0-458.4c114.4,0,228.9,0,343.3,0
				C451.2,135.4,451.2,288.3,451.2,441.1z M333.9,31.3c-8,0-15.9,0-23.9,0c-0.6,0-1.2,0-1.8,0.1c-9.2,0.3-14.6,5.9-14.6,15.1
				c0,4.4,0,8.8,0,13.2c0.1,7.8,7,14.7,14.8,14.8c9.8,0,19.6,0,29.4,0c1,0,2.1,0,3,0.3c0.5,0.2,1.1,1,1.1,1.5c0,0.4-0.7,1-1.2,1.2
				c-0.6,0.2-1.3,0.1-2,0.1c-10.1,0-20.1,0-30.2,0c-6.9,0-13.8,5-14.7,11.8c-0.7,6-0.1,12.2-0.1,18.4c0,0.3,0.2,0.6,0.3,1
				c2.7,7.6,8,11.3,16.6,11.3c15.3,0,30.5,0,45.8,0c2.5,0,3.7-1.2,3.7-3.7c0-2.3,0-4.6,0-6.9c0-2.8-1.1-3.9-3.9-3.9
				c-15.2,0-30.4,0-45.6,0c-2.8,0-2.9-0.1-2.9-3c0-2.4,0-4.7,0-7.1c0-3.8,0-3.8,3.7-3.8c9.7,0,19.5-0.1,29.2,0.1
				c4.1,0.1,7.4-1.5,10.6-3.9c7.4-5.5,8-20.9-3.4-25.2c-3.2-1.2-6.6-2-10-2.1c-8.4-0.3-16.9-0.1-25.3-0.1c-0.9,0-1.8-0.1-2.6-0.1
				c-1.5-0.1-2.2-0.9-2.1-2.4c0-2.6,0-5.1,0-7.7c0-4.1,0.7-4.8,4.9-4.8c15.6,0,31.2,0,46.8,0c3,0,4.3-1.3,4.3-4.2c0-2,0-3.9,0-5.9
				c0-2.5-1.4-3.9-3.9-3.9C351,31.3,342.4,31.3,333.9,31.3z M150.7,264.3c-8,0-15.9,0-23.9,0c-0.6,0-1.2,0-1.8,0.1
				c-8.3,0.3-13.6,4.7-14.4,12.7c-0.5,5.5-0.6,11.1-0.1,16.6c0.8,8.2,7.4,13.7,15.6,13.7c9.9,0,19.7,0,29.6,0c1.2,0,3.2-0.4,3.2,1.6
				c0,2-1.9,1.5-3.1,1.5c-10.3,0-20.5,0-30.8,0c-6.9,0-13.8,5.7-14.5,12.6c-0.5,4.9-0.2,9.8-0.2,14.7c0,1.3,0.2,2.6,0.6,3.8
				c2.6,7.6,8,11.4,16.5,11.4c15.3,0,30.5,0,45.8,0c2.6,0,3.7-1.2,3.7-3.8c0-2.3,0-4.6,0-6.9c0-2.7-1.1-3.7-3.8-3.7
				c-15.3,0-30.7,0-46,0c-1.9,0-2.7-0.7-2.6-2.6c0.1-2.8,0-5.5,0-8.3c0-2.9,0.1-3.1,3.1-3.1c9.9,0,19.9-0.1,29.8,0.1
				c4.4,0.1,7.8-1.6,11.1-4.2c6.5-5.2,6.6-17.9-0.1-22.8c-3.9-2.8-8.3-4.3-13-4.3c-8.6-0.1-17.3,0-25.9,0c-0.7,0-1.5,0-2.2-0.1
				c-1.9-0.1-2.8-1-2.7-3c0.1-2.4,0-4.7,0-7.1c0-4.2,0.7-4.9,5-4.9c15.7,0,31.3,0,47,0c2.7,0,4-1.4,4.1-4.1c0-2,0-3.9,0-5.9
				c0-2.7-1.4-4.1-4.1-4.1C167.9,264.3,159.3,264.3,150.7,264.3z M210.7,119.5c0-0.5,0.1-0.9,0.1-1.3c0-27.8,0-55.6,0.1-83.5
				c0-1.9-1.6-3.5-3.5-3.5c-17.9,0-35.8,0-53.7,0.2c-6.7,0.1-11.7,4.5-13.1,10.9c-0.3,1.6-0.5,3.2-0.5,4.8c0,18.7-0.1,37.4,0,56.1
				c0,7.9,5.2,14.3,12.8,16.2c0.5,0.1,1,0.1,1.7,0.1c0-12.1,0-24,0-35.9c13.9,0,27.6,0,41.4,0c0,12,0,23.9,0,35.8
				C200.9,119.5,205.6,119.5,210.7,119.5z M217.7,42.9C217.7,42.9,217.7,42.9,217.7,42.9c0,9.9,0,19.7,0.1,29.6
				c0.1,4.6,1.6,8.7,5.5,11.5c10.7,7.7,23.9,0.2,25.6-8.8c1.1-6.2,2.2-12.4,3.3-18.5c0.5-2.8,1-5.7,1.7-8.5c0.4-1.6,1.4-2.4,3.2-2.3
				c3.2,0.2,6.3,0,9.5,0.1c1,0,2,0.2,3,0.5c0.4,0.1,0.8,0.7,0.9,1.1c0,0.3-0.5,0.8-0.8,0.9c-0.8,0.3-1.7,0.3-2.6,0.5
				c-2.1,0.4-4.3,0.6-6.2,1.4c-6.2,2.7-9.6,10.2-8.3,17.7c1.1,6.2,4.1,10.6,10.6,12.1c1.4,0.3,2.9,0.4,4.4,0.5
				c2.8,0.4,3.1,0.7,3.1,3.4c0,10.8,0,21.6,0,32.4c0,2.1,1.4,3.5,3.4,3.5c2.8,0,5.5,0,8.3,0c1.6,0,3.1-1.5,3.1-3.1
				c0-11.8,0.2-23.6-0.1-35.5c-0.1-7.8-6.3-14-14.1-14.9c-0.9-0.1-2-0.1-2.7-0.6c-0.6-0.4-1.2-1.4-1.2-2.2c0-0.5,0.7-1.5,1.3-1.6
				c1.6-0.3,3.3-0.5,5-0.5c5.7-0.1,10.3-4,11.5-9.6c1.1-5.5-0.2-10.3-3.5-14.7c-2.6-3.5-6-5.8-10.4-5.9c-6.1-0.2-12.2-0.2-18.2,0
				c-5.9,0.2-10.7,3.7-12.3,9.4c-1.4,4.8-2.4,9.7-3.3,14.6c-0.8,4.6-1.3,9.3-2.1,14c-0.2,1-1.1,1.8-1.7,2.7c-0.3-1-0.9-2-0.9-3
				c-0.1-18.5,0-37,0-55.5c0-2.5-1.2-3.7-3.7-3.7c-2.5,0-5,0-7.5,0c-2.6,0-3.7,1.1-3.7,3.6C217.7,23.3,217.7,33.1,217.7,42.9z
				 M195.7,189.4c0,9.3,0,18.6,0,28c0,0.1,0,0.1,0,0.2c0.1,8.8,5.6,15.9,14.1,16.4c10.6,0.6,21.3,0.4,32-0.1
				c6.2-0.3,9.3-3.8,10.7-9.8c0.7-3.3,1.5-6.6,2-9.9c2.6-15.8,5.2-31.7,7.6-47.5c0.5-3,0.9-6.3,0.1-9.2c-2.2-7.8-8.1-11.8-16.3-11.8
				c-11.5,0-23.1,0-34.6,0c-0.7,0-1.4-0.1-2,0.1c-7.4,2.2-13.5,7.3-13.4,16.3C195.7,171.1,195.7,180.2,195.7,189.4z M387.7,188.5
				c3.3,0,6.6,0,9.9,0c6.7,0,13.6-5,14.5-11.6c0.8-5.8,0.3-11.7,0.3-17.6c0-0.7-0.3-1.5-0.5-2.1c-2.7-7.5-8-11.1-16.5-11.2
				c-15.3,0-30.5,0-45.8,0c-2.6,0-3.7,1.2-3.7,3.8c0,2.2,0,4.5,0,6.7c0,2.9,1.1,3.9,4,3.9c15.3,0,30.5,0,45.8,0c2,0,2.7,0.7,2.6,2.6
				c-0.1,2.9,0,5.8,0,8.7c0,2.4-0.2,2.7-2.7,2.7c-9.7,0-19.3-0.1-29,0c-3.2,0-6.6-0.1-9.6,0.8c-7.7,2.3-11.5,7.9-11.5,16.4
				c0,13.4,0,26.7,0,40.1c0,0.5,0,1,0.1,1.6c4.8,0,9.5,0,14.4,0c0-0.8,0-1.6,0-2.3c0-11.1,0-22.2,0-33.2c0-2.4-0.1-4.7,0.1-7.1
				c0-0.6,0.9-1.7,1.3-1.7c4-0.1,7.9-0.1,12.3-0.1c3.2,14.8,4.7,30.1,7.3,45.3c4.7,0,9.3,0,14.2,0
				C392.7,218.9,390.2,203.8,387.7,188.5z M235.3,263.5c-7.4,0-14.7-0.1-22.1,0.1c-2.7,0.1-5.5,0.7-8,1.6c-6.4,2.5-9.3,7.1-9.3,13.9
				c0,4.3-0.1,8.6,0,13c0.1,5.9,3.1,10.4,8.3,12.9c10.8,5.3,21.8,10.3,32.7,15.5c2.1,1,4.3,1.9,6.4,3c1.5,0.8,2.4,2,2.2,3.9
				c-0.2,2.4,0,4.7,0,7.1c0,3.2,0,3.2-3.3,3.2c-14.3,0-28.6,0-43,0c-2.7,0-3.7,1.1-3.7,3.8c0,2.6,0,5.1,0,7.7c0,1.6,1.3,3,2.9,3
				c15.1,0,30.3,0.1,45.4-0.1c8.6-0.1,14.6-6,15.3-14.6c0.3-4.2,0.4-8.4,0.1-12.5c-0.3-6.3-2.9-11.3-9.1-13.9
				c-2.9-1.2-5.7-2.8-8.5-4.2c-9.6-4.5-19.2-9-28.8-13.4c-2.5-1.1-3.9-2.7-3.6-5.6c0.2-2.3,0-4.6,0.1-6.9c0.1-2.9,0.7-3.5,3.6-3.5
				c15.3,0,30.5,0,45.8,0c2.7,0,4.1-1.3,4.1-4c0-2,0-4.1,0-6.1c0-2.6-1.4-4-3.9-4C250.9,263.5,243.1,263.5,235.3,263.5z M271,146.1
				c-0.1,1.6-0.3,3.1-0.3,4.5c0,20.8,0,41.6,0,62.4c0,2.4,0.1,4.9,0.6,7.2c1.4,6.2,6,13.7,15,13.9c9.4,0.2,18.9,0.1,28.4,0
				c5.5-0.1,11.4-3.7,12.5-10.3c1.4-8.8,3.1-17.5,4.3-26.3c2-13.8,3.8-27.7,5.6-41.5c0.4-3.2,0.5-6.5,0.8-9.9c-5,0-9.4,0-13.9,0
				c-0.1,0.9-0.3,1.7-0.4,2.5c-0.6,5.4-1.2,10.9-1.9,16.3c-1.7,13.2-3.3,26.4-5.1,39.5c-0.5,3.6-1.1,7.2-1.7,10.8
				c-0.2,1.1-0.7,2.3-2.3,2.3c-8.5-0.1-17-0.1-25.5,0c-1.4,0-1.9-0.7-2-1.9c0-0.7,0-1.3,0-2c0-19.5,0-39,0-58.5c0-2.9,0-5.9,0-8.9
				C280.2,146.1,275.8,146.1,271,146.1z M312.1,351.7c0-0.9,0-1.7,0-2.5c0-20.9,0-41.9,0-62.8c0-2.4,0.4-4.6,1.2-6.9
				c0.5-1.5,1.2-2,2.8-2c9.3,0.1,18.6,0,28,0c2.7,0,4.2-1.5,4.2-4.2c0-2,0-3.9,0-5.9c0-3.1-1.3-4.4-4.4-4.4c-23.4,0-46.9,0-70.3,0.1
				c-0.7,0-1.3,0-2,0c0,4.9,0,9.6,0,14.5c9.2,0,18.2,0,27.3,0c-0.7,4.4-1,71.8-0.3,74C302.9,351.7,307.4,351.7,312.1,351.7z"/>
			<path d="M333.9,31.3c8.6,0,17.2,0,25.7,0c2.5,0,3.9,1.4,3.9,3.9c0,2,0,3.9,0,5.9c0,2.9-1.4,4.2-4.3,4.2c-15.6,0-31.2,0-46.8,0
				c-4.2,0-4.9,0.7-4.9,4.8c0,2.6,0,5.1,0,7.7c0,1.5,0.7,2.3,2.1,2.4c0.9,0.1,1.7,0.1,2.6,0.1c8.4,0,16.9-0.2,25.3,0.1
				c3.4,0.1,6.8,0.9,10,2.1c11.4,4.3,10.8,19.8,3.4,25.2c-3.1,2.3-6.4,3.9-10.6,3.9c-9.7-0.2-19.5-0.1-29.2-0.1
				c-3.7,0-3.7,0-3.7,3.8c0,2.4,0,4.7,0,7.1c0,2.9,0.1,3,2.9,3c15.2,0,30.4,0,45.6,0c2.8,0,3.9,1.1,3.9,3.9c0,2.3,0,4.6,0,6.9
				c0,2.5-1.2,3.7-3.7,3.7c-15.3,0-30.5,0-45.8,0c-8.5,0-13.9-3.7-16.6-11.3c-0.1-0.3-0.3-0.6-0.3-1c0-6.1-0.7-12.3,0.1-18.4
				c0.8-6.8,7.7-11.8,14.7-11.8c10.1,0,20.1,0,30.2,0c0.7,0,1.4,0.1,2-0.1c0.5-0.2,1.3-0.8,1.2-1.2c0-0.6-0.6-1.4-1.1-1.5
				c-0.9-0.3-2-0.3-3-0.3c-9.8,0-19.6,0-29.4,0c-7.7,0-14.7-6.9-14.8-14.8c0-4.4,0-8.8,0-13.2c0-9.2,5.4-14.7,14.6-15.1
				c0.6,0,1.2-0.1,1.8-0.1C317.9,31.3,325.9,31.3,333.9,31.3z"/>
			<path d="M150.7,264.3c8.6,0,17.2,0,25.7,0c2.6,0,4.1,1.4,4.1,4.1c0,2,0,3.9,0,5.9c0,2.7-1.4,4.1-4.1,4.1c-15.7,0-31.3,0-47,0
				c-4.2,0-5,0.7-5,4.9c0,2.4,0.1,4.7,0,7.1c-0.1,2,0.8,2.9,2.7,3c0.7,0,1.5,0.1,2.2,0.1c8.6,0,17.3-0.1,25.9,0
				c4.8,0,9.1,1.5,13,4.3c6.7,4.9,6.6,17.6,0.1,22.8c-3.2,2.6-6.7,4.3-11.1,4.2c-9.9-0.2-19.9-0.1-29.8-0.1c-3,0-3.1,0.1-3.1,3.1
				c0,2.8,0.1,5.5,0,8.3c-0.1,1.9,0.7,2.6,2.6,2.6c15.3-0.1,30.7,0,46,0c2.7,0,3.8,1.1,3.8,3.7c0,2.3,0,4.6,0,6.9
				c0,2.6-1.2,3.8-3.7,3.8c-15.3,0-30.5,0-45.8,0c-8.5,0-13.9-3.8-16.5-11.4c-0.4-1.2-0.6-2.5-0.6-3.8c0-4.9-0.3-9.9,0.2-14.7
				c0.7-6.9,7.6-12.6,14.5-12.6c10.3,0,20.5,0,30.8,0c1.2,0,3.1,0.5,3.1-1.5c0-1.9-2-1.6-3.2-1.6c-9.9-0.1-19.7,0-29.6,0
				c-8.2,0-14.8-5.5-15.6-13.7c-0.5-5.5-0.5-11.1,0.1-16.6c0.8-8,6.1-12.4,14.4-12.7c0.6,0,1.2-0.1,1.8-0.1
				C134.8,264.3,142.7,264.3,150.7,264.3z"/>
			<path d="M210.7,119.5c-5,0-9.8,0-14.7,0c0-12,0-23.8,0-35.8c-13.8,0-27.5,0-41.4,0c0,11.8,0,23.7,0,35.9c-0.7-0.1-1.2,0-1.7-0.1
				c-7.6-1.9-12.8-8.3-12.8-16.2c-0.1-18.7,0-37.4,0-56.1c0-1.6,0.2-3.2,0.5-4.8c1.4-6.4,6.4-10.8,13.1-10.9
				c17.9-0.2,35.8-0.2,53.7-0.2c2,0,3.5,1.6,3.5,3.5c0,27.8,0,55.6-0.1,83.5C210.7,118.5,210.7,118.9,210.7,119.5z M196,45.9
				c-0.2,0-0.4-0.1-0.6-0.1c-12.8,0-25.5,0-38.3,0c-1.8,0-2.3,0.9-2.3,2.6c0,5.9,0,11.7,0,17.6c0,1,0,2,0,3c13.8,0,27.4,0,41.2,0
				C196,61.2,196,53.6,196,45.9z"/>
			<path d="M217.7,42.9c0-9.8,0-19.6,0-29.4c0-2.6,1.1-3.6,3.7-3.6c2.5,0,5,0,7.5,0c2.5,0,3.7,1.2,3.7,3.7c0,18.5,0,37,0,55.5
				c0,1,0.6,2,0.9,3c0.6-0.9,1.5-1.7,1.7-2.7c0.8-4.6,1.2-9.4,2.1-14c0.9-4.9,1.9-9.8,3.3-14.6c1.6-5.6,6.5-9.2,12.3-9.4
				c6.1-0.2,12.2-0.2,18.2,0c4.4,0.2,7.8,2.5,10.4,5.9c3.3,4.4,4.6,9.2,3.5,14.7c-1.1,5.6-5.8,9.5-11.5,9.6c-1.7,0-3.4,0.2-5,0.5
				c-0.5,0.1-1.3,1.1-1.3,1.6c0.1,0.8,0.6,1.8,1.2,2.2c0.7,0.5,1.8,0.5,2.7,0.6c7.9,0.9,14,7.1,14.1,14.9
				c0.2,11.8,0.1,23.6,0.1,35.5c0,1.5-1.5,3-3.1,3.1c-2.8,0-5.5,0-8.3,0c-2.1,0-3.4-1.4-3.4-3.5c0-10.8,0-21.6,0-32.4
				c0-2.7-0.3-3.1-3.1-3.4c-1.5-0.2-3-0.2-4.4-0.5c-6.4-1.4-9.5-5.8-10.6-12.1c-1.3-7.5,2.1-15,8.3-17.7c1.9-0.8,4.2-1,6.2-1.4
				c0.8-0.2,1.7-0.2,2.6-0.5c0.4-0.1,0.9-0.7,0.8-0.9c-0.1-0.4-0.5-1-0.9-1.1c-0.9-0.3-2-0.5-3-0.5c-3.2-0.1-6.4,0.1-9.5-0.1
				c-1.9-0.1-2.9,0.7-3.2,2.3c-0.7,2.8-1.2,5.7-1.7,8.5c-1.1,6.2-2.2,12.4-3.3,18.5c-1.6,9-14.8,16.5-25.6,8.8
				c-3.9-2.8-5.4-6.9-5.5-11.5C217.7,62.6,217.8,52.7,217.7,42.9C217.7,42.9,217.7,42.9,217.7,42.9z"/>
			<path d="M195.7,189.4c0-9.1,0-18.2,0-27.3c0-9,6-14.1,13.4-16.3c0.6-0.2,1.3-0.1,2-0.1c11.5,0,23.1,0,34.6,0
				c8.2,0,14.1,4,16.3,11.8c0.8,2.8,0.4,6.2-0.1,9.2c-2.4,15.9-5,31.7-7.6,47.5c-0.5,3.3-1.3,6.6-2,9.9c-1.4,6-4.5,9.5-10.7,9.8
				c-10.6,0.5-21.3,0.7-32,0.1c-8.5-0.5-14-7.7-14.1-16.4c0-0.1,0-0.1,0-0.2C195.7,208,195.7,198.7,195.7,189.4z M210,190.1
				c0,8.8,0,17.6,0,26.3c0,3.3,0.1,3.3,3.2,3.3c8,0,15.9,0,23.9,0c1.6,0,2.4-0.6,2.8-2c0.2-0.7,0.4-1.4,0.6-2.1
				c1.3-8.3,2.6-16.6,3.9-25c1.4-9.3,2.6-18.6,3.8-27.8c0.3-2.1-0.3-2.8-2.3-2.8c-11.1-0.1-22.3,0-33.4-0.1c-1.4,0-2.1,0.7-2.3,2
				c-0.1,0.8-0.2,1.6-0.2,2.4C210,173,210,181.6,210,190.1z"/>
			<path d="M387.7,188.5c2.5,15.3,5,30.4,7.5,45.6c-4.9,0-9.6,0-14.2,0c-2.6-15.2-4.1-30.5-7.3-45.3c-4.4,0-8.3-0.1-12.3,0.1
				c-0.5,0-1.3,1.1-1.3,1.7c-0.2,2.4-0.1,4.7-0.1,7.1c0,11.1,0,22.2,0,33.2c0,0.7,0,1.5,0,2.3c-4.9,0-9.6,0-14.4,0
				c0-0.6-0.1-1.1-0.1-1.6c0-13.4,0-26.7,0-40.1c0-8.5,3.8-14.1,11.5-16.4c3-0.9,6.4-0.8,9.6-0.8c9.7-0.1,19.3,0,29,0
				c2.5,0,2.7-0.2,2.7-2.7c0-2.9-0.1-5.8,0-8.7c0.1-1.9-0.6-2.6-2.6-2.6c-15.3,0.1-30.5,0-45.8,0c-2.9,0-4-1.1-4-3.9
				c0-2.2,0-4.5,0-6.7c0-2.6,1.2-3.8,3.7-3.8c15.3,0,30.5,0,45.8,0c8.5,0,13.8,3.6,16.5,11.2c0.2,0.7,0.5,1.4,0.5,2.1
				c0,5.9,0.5,11.8-0.3,17.6c-0.9,6.6-7.8,11.6-14.5,11.6C394.3,188.5,391,188.5,387.7,188.5z"/>
			<path d="M235.3,263.5c7.8,0,15.7,0,23.5,0c2.5,0,3.9,1.4,3.9,4c0,2,0,4.1,0,6.1c0,2.7-1.3,4-4.1,4c-15.3,0-30.5,0-45.8,0
				c-2.9,0-3.6,0.6-3.6,3.5c-0.1,2.3,0.1,4.6-0.1,6.9c-0.2,2.9,1.1,4.5,3.6,5.6c9.6,4.4,19.2,8.9,28.8,13.4c2.9,1.3,5.6,2.9,8.5,4.2
				c6.2,2.6,8.7,7.6,9.1,13.9c0.2,4.2,0.2,8.4-0.1,12.5c-0.7,8.5-6.7,14.5-15.3,14.6c-15.1,0.2-30.3,0.1-45.4,0.1
				c-1.6,0-2.9-1.3-2.9-3c0-2.6,0-5.1,0-7.7c0-2.7,1-3.8,3.7-3.8c14.3,0,28.6,0,43,0c3.3,0,3.3,0,3.3-3.2c0-2.4-0.1-4.7,0-7.1
				c0.1-1.9-0.7-3.1-2.2-3.9c-2.1-1.1-4.3-2-6.4-3c-10.9-5.1-21.9-10.1-32.7-15.5c-5.2-2.6-8.1-7-8.3-12.9c-0.1-4.3,0-8.6,0-13
				c0-6.8,3-11.5,9.3-13.9c2.5-1,5.3-1.5,8-1.6C220.5,263.4,227.9,263.5,235.3,263.5z"/>
			<path d="M271,146.1c4.8,0,9.2,0,14,0c0,3,0,5.9,0,8.9c0,19.5,0,39,0,58.5c0,0.7,0,1.4,0,2c0.1,1.2,0.6,1.9,2,1.9
				c8.5-0.1,17-0.1,25.5,0c1.7,0,2.1-1.1,2.3-2.3c0.7-3.6,1.3-7.2,1.7-10.8c1.7-13.2,3.4-26.4,5.1-39.5c0.7-5.4,1.2-10.9,1.9-16.3
				c0.1-0.8,0.3-1.6,0.4-2.5c4.5,0,8.9,0,13.9,0c-0.3,3.4-0.4,6.6-0.8,9.9c-1.8,13.8-3.6,27.7-5.6,41.5c-1.3,8.8-2.9,17.6-4.3,26.3
				c-1.1,6.7-7,10.3-12.5,10.3c-9.5,0.1-18.9,0.2-28.4,0c-9-0.2-13.5-7.7-15-13.9c-0.5-2.3-0.6-4.8-0.6-7.2c0-20.8,0-41.6,0-62.4
				C270.7,149.2,270.9,147.7,271,146.1z"/>
			<path d="M312.1,351.7c-4.7,0-9.2,0-13.7,0c-0.6-2.2-0.4-69.6,0.3-74c-9.1,0-18.1,0-27.3,0c0-4.9,0-9.6,0-14.5c0.7,0,1.4,0,2,0
				c23.4,0,46.9,0,70.3-0.1c3.1,0,4.4,1.3,4.4,4.4c0,2,0,3.9,0,5.9c0,2.7-1.5,4.2-4.2,4.2c-9.3,0-18.6,0.1-28,0
				c-1.6,0-2.3,0.5-2.8,2c-0.7,2.2-1.2,4.5-1.2,6.9c0.1,20.9,0,41.9,0,62.8C312.1,350,312.1,350.8,312.1,351.7z"/>
			<path class="st0" d="M196,45.9c0,7.7,0,15.3,0,23c-13.8,0-27.4,0-41.2,0c0-1,0-2,0-3c0-5.9,0-11.7,0-17.6c0-1.6,0.5-2.6,2.3-2.6
				c12.8,0,25.5,0,38.3,0C195.6,45.8,195.8,45.8,196,45.9z"/>
			<path class="st0" d="M210,190.1c0-8.6,0-17.1,0-25.7c0-0.8,0.1-1.6,0.2-2.4c0.2-1.3,0.8-2,2.3-2c11.1,0.1,22.3,0,33.4,0.1
				c2.1,0,2.6,0.7,2.3,2.8c-1.2,9.3-2.5,18.6-3.8,27.8c-1.2,8.3-2.6,16.7-3.9,25c-0.1,0.7-0.3,1.4-0.6,2.1c-0.4,1.4-1.2,2-2.8,2
				c-8-0.1-15.9,0-23.9,0c-3.2,0-3.2-0.1-3.2-3.3C210,207.7,210,198.9,210,190.1z"/>
		</g>
	</g>
	<rect x="140.1" y="102.1" width="14.5" height="18.4"/>
	<g>
		<g>
			<path class="st0" d="M270.9,155.7c-2.1,0-4.2,0-6.3,0c0-4.4,0-8.8,0-13.2c8.6,0,17.2,0,25.7,0c0,4.4,0,8.8,0,13.2
				c-1.7,0-3.4,0-5.1,0c0-1.4-0.1-2.9-0.1-4.3c-0.1-2.5-1.2-3.9-3.6-4c-2.4-0.1-4.7-0.1-7.1,0c-2.5,0.1-3.5,1.4-3.5,4
				C270.8,152.8,270.9,154.3,270.9,155.7z"/>
			<path d="M270.9,155.7c0-1.4,0-2.9,0-4.3c0-2.6,1-3.9,3.5-4c2.4-0.1,4.7-0.1,7.1,0c2.4,0.1,3.5,1.5,3.6,4c0.1,1.4,0.1,2.9,0.1,4.3
				C280.4,155.7,275.6,155.7,270.9,155.7z"/>
		</g>
	</g>
	<g>
		<g>
			<path class="st0" d="M323,154.5c-2.1-0.3-4.2-0.5-6.3-0.8c0.5-4.2,1.1-8.4,1.6-12.7c8.5,1.1,17,2.2,25.5,3.2
				c-0.5,4.2-1.1,8.4-1.6,12.7c-1.7-0.2-3.4-0.4-5.1-0.6c0.1-1.4,0.3-2.7,0.4-4.1c0.2-2.4-0.7-3.9-3-4.3c-2.3-0.4-4.7-0.7-7-0.9
				c-2.4-0.2-3.6,0.9-3.9,3.4C323.4,151.8,323.2,153.1,323,154.5z"/>
			<path d="M323,154.5c0.2-1.4,0.3-2.8,0.5-4.1c0.3-2.5,1.5-3.6,3.9-3.4c2.4,0.2,4.7,0.5,7,0.9c2.3,0.4,3.2,1.9,3,4.3
				c-0.1,1.4-0.3,2.8-0.4,4.1C332.5,155.7,327.8,155.1,323,154.5z"/>
		</g>
	</g>
	<g>
		<g>
			<path class="st0" d="M210.9,112.3c2.2,0,4.4,0,6.6,0c0,4.4,0,8.8,0,13.2c-8.9,0-17.8,0-26.7,0c0-4.4,0-8.8,0-13.2
				c1.8,0,3.6,0,5.3,0c0,1.4,0.1,2.9,0.1,4.3c0.1,2.5,1.2,3.9,3.7,4c2.5,0.1,4.9,0.1,7.4,0c2.5-0.1,3.6-1.4,3.6-4
				C210.9,115.1,210.9,113.7,210.9,112.3z"/>
			<path d="M210.9,112.3c0,1.4,0,2.9,0,4.3c0,2.6-1.1,3.9-3.6,4c-2.5,0.1-4.9,0.1-7.4,0c-2.5-0.1-3.6-1.5-3.7-4
				c-0.1-1.4-0.1-2.9-0.1-4.3C201,112.3,205.9,112.3,210.9,112.3z"/>
		</g>
	</g>
	<g>
		<g>
			<path class="st0" d="M154.6,112.3c2.1,0,4.3,0,6.4,0c0,4.3,0,8.7,0,13c-8.7,0-17.5,0-26.2,0c0-4.3,0-8.7,0-13c1.7,0,3.5,0,5.2,0
				c0,1.4,0.1,2.8,0.1,4.2c0.1,2.5,1.2,3.8,3.6,4c2.4,0.1,4.8,0.1,7.2,0c2.5-0.1,3.5-1.4,3.5-3.9
				C154.6,115.1,154.6,113.7,154.6,112.3z"/>
			<path d="M154.6,112.3c0,1.4,0,2.8,0,4.2c0,2.5-1.1,3.8-3.5,3.9c-2.4,0.1-4.8,0.1-7.2,0c-2.4-0.1-3.5-1.5-3.6-4
				c-0.1-1.4-0.1-2.8-0.1-4.2C144.9,112.3,149.8,112.3,154.6,112.3z"/>
		</g>
	</g>
	<g>
		<g>
			<path class="st0" d="M74.3,222.9c4.4,0,8.8,0,13.1,0c0,8.8,0,17.5,0,26.3c-4.4,0-8.8,0-13.1,0C74.3,240.5,74.3,231.7,74.3,222.9z
				"/>
		</g>
	</g>
	<g>
		<g>
			<path class="st0" d="M279.5,277.7c0,2.1,0,4.3,0,6.4c-4.4,0-8.8,0-13.2,0c0-8.7,0-17.5,0-26.2c4.4,0,8.8,0,13.2,0
				c0,1.8,0,3.5,0,5.3c-1.4,0-2.9,0.1-4.3,0.1c-2.5,0.1-3.9,1.2-4,3.6c-0.1,2.4-0.1,4.8,0,7.2c0.1,2.5,1.4,3.5,4,3.6
				C276.6,277.7,278.1,277.7,279.5,277.7z"/>
			<path d="M279.5,277.7c-1.4,0-2.9,0-4.3,0c-2.6,0-3.9-1.1-4-3.6c-0.1-2.4-0.1-4.8,0-7.2c0.1-2.4,1.5-3.5,4-3.6
				c1.4-0.1,2.9-0.1,4.3-0.1C279.5,268,279.5,272.8,279.5,277.7z"/>
		</g>
	</g>
</g>
<g id="Calque_2">
	<path class="st1" d="M29.3,301.1c0-3.7,4.6-10,11.9-10c8.4,0,35.5-0.3,35.5-0.3s1.5-0.2,1.6-1.4c0-1.2,0-1.8-1.9-1.8
		c-1.9,0-34.3,0.1-34.3,0.1s-12.6,0.7-12.6-13.4c0-0.3-0.1-17.5-0.1-17.5s1.3-11.8,15.7-12.9c1.1-0.1,119.3-0.3,119.3-0.3
		s1.8,0,1.7-1.7c0-1.7-0.1-75.3-0.1-79.3c0-0.1,0-0.2,0-0.3c-0.2-0.9-1.3-4.6-3.1,0.1c-0.2,0.7-1.3,3.8-2.6,12.1
		c-0.2,1.4-1.5,8.5-3.4,16.2c-0.4,0.6-2.5,10.2-16,10.2c-0.7-0.1-11.1,0-13.5,0c-0.4,0-0.8,0-1.1-0.1c-2.7-0.5-13.3-3.3-13.3-15.1
		c0-1.5-0.5-137-0.5-137s0.3-2.2-2.3-2.2c-1.3,0-15.1,0-15.1,0s0.6-3-4,27.8c-0.4,1.3-1.1,13.5-16,13.5c-0.6,0-13.7-0.3-15.3-15
		c-0.1-0.7-0.2-24.1-0.2-24.1s0.2-2.2-2-2.1c-1.8,0.1-13,0.1-13,0.1L44.3,125l-14.6-3.8V43.4c0,0-0.3-12.1,13.3-12.1
		c1.4,0,16.3,0,16.3,0s15,0,15,14.8v25c0,0.3,0.1,0.7,0.3,0.9c0.5,0.8,1.6,1.9,2.6-0.7c0.4-1.3,2.9-13.3,2.8-19.9
		c0-14.7,3.2-20.2,16.5-20.2c1.8,0.1,15.4,0,15.4,0s15.2,0.7,15.2,14.3c0.2,1.1,0,140.7,0,140.7h16.5c0,0,2.8-11.1,3.4-19.1
		c0.2-1.2,1.2-13.1,10.4-20c0.4-0.3,0.9-0.5,1.4-0.7c3.3-1,15.6-4.1,20.7,10.7c0.2,0.5,0.2,1,0.3,1.6c0,0.1,0.2,0.9,0.2,2.3
		c0.1,13.5,0,82.4,0,82.4s-0.7,14.5-17.8,14.5c-0.9-0.1-115.3,0-115.3,0s-3.5-0.6-3.3,3.6c-0.1,1.5,0,8,0,8s-0.7,3.8,4.7,3.8
		c1.3,0,28.3,0.1,28.3,0.1s16.1-0.8,16.2,15.5c-0.1,1.2,1,15.6-16,15.3c-5.9,0.2-29.8,0.4-29.8,0.4s-3.3-0.4-3.3,2.6
		c0,3.2-0.1,47.2-0.1,47.2H29.4"/>
</g>
<g id="Calque_3">
	<rect x="32.3" y="166.8" class="st2" width="9.3" height="7.2"/>
	<rect x="32.3" y="175.9" class="st2" width="9.3" height="7.2"/>
	<rect x="32.3" y="185.1" class="st2" width="9.3" height="7.2"/>
	<path class="st2" d="M32.3,194.1h9.3c0,0,0.1,1.6-1.5,2.3c0.2,0.4,1.5,7,1.5,7l-3.3,5h-2.3l-3.8-5l1.3-7.1
		C33.6,196.3,32.3,195.8,32.3,194.1z"/>
	<path class="st2" d="M43.4,166.8H30.5c-2.9,0-5.2-2.3-5.2-5.2v-36c0-2.9,2.3-5.2,5.2-5.2h12.9c2.9,0,5.2,2.3,5.2,5.2v36
		C48.6,164.4,46.3,166.8,43.4,166.8z"/>
	<rect x="31.4" y="401" class="st2" width="9.3" height="7.2"/>
	<rect x="31.4" y="410.1" class="st2" width="9.3" height="7.2"/>
	<rect x="31.4" y="419.3" class="st2" width="9.3" height="7.2"/>
	<path class="st2" d="M31.4,428.3h9.3c0,0,0.1,1.6-1.5,2.3c0.2,0.4,1.5,7,1.5,7l-3.3,5h-2.3l-3.8-5l1.3-7.1
		C32.8,430.6,31.4,430.1,31.4,428.3z"/>
	<path class="st2" d="M42.5,401H29.7c-2.9,0-5.2-2.3-5.2-5.2v-36c0-2.9,2.3-5.2,5.2-5.2h12.9c2.9,0,5.2,2.3,5.2,5.2v36
		C47.7,398.7,45.4,401,42.5,401z"/>
</g>
</svg>
